<svg height="52.78" viewBox="0 0 217.66 52.78" width="217.66" xmlns="http://www.w3.org/2000/svg"><path d="m0 0c0-.446-.362-.807-.807-.807-.446 0-.807.361-.807.807s.361.807.807.807c.445 0 .807-.361.807-.807" fill="#00adef" transform="matrix(1.3333 0 0 -1.3333 67.5193451 44.642811)"/><path d="m0 0c0-.446-.362-.807-.807-.807-.446 0-.807.361-.807.807s.361.807.807.807c.445 0 .807-.361.807-.807" fill="#00adef" transform="matrix(1.3333 0 0 -1.3333 67.5193451 48.109391)"/><path d="m0 0c0-.446-.362-.807-.807-.807-.446 0-.807.361-.807.807s.361.807.807.807c.445 0 .807-.361.807-.807" fill="#00adef" transform="matrix(1.3333 0 0 -1.3333 67.5193451 51.469307)"/><path d="m0 0c0-.446-.362-.807-.807-.807-.446 0-.807.361-.807.807s.361.807.807.807c.445 0 .807-.361.807-.807" fill="#00adef" transform="matrix(1.3333 0 0 -1.3333 128.801813 44.696143)"/><path d="m0 0c0-.446-.362-.807-.807-.807-.446 0-.807.361-.807.807s.361.807.807.807c.445 0 .807-.361.807-.807" fill="#00adef" transform="matrix(1.3333 0 0 -1.3333 128.801813 48.14939)"/><path d="m0 0c0-.446-.362-.807-.807-.807-.446 0-.807.361-.807.807s.361.807.807.807c.445 0 .807-.361.807-.807" fill="#00adef" transform="matrix(1.3333 0 0 -1.3333 128.801813 51.522639)"/><path d="m0 0h-2.77c-.642 0-3.243-.102-3.243-.102l-.169.204c.101 3.141.169 6.249.169 9.391v2.364c0 3.919-.034 7.872-.304 11.79l.169.203h2.331c1.115 0 3.074.068 3.783.101l.136-.202c-.102-4.629-.169-9.29-.169-13.952 0-3.209.067-6.419.236-9.594" fill="#0c6ea7" transform="matrix(1.3333 0 0 -1.3333 8.4221559 31.949795)"/><path d="m0 0c-.101-1.385-.169-2.838-.237-4.122l-.27-.202c-4.931 0-9.898-.034-14.864-.068l-.169.237c.136 3.108.169 6.216.169 9.357v6.994c0 2.398-.033 4.763-.236 7.127l.203.203c3.682 0 12.6.068 14.83.068l.169-.203c-.102-1.385-.203-2.602-.237-3.919l-.202-.203c-2.906.068-5.777.102-8.649.102 0-.642-.033-1.554-.033-2.5 0-1.081 0-2.162.033-2.871 2.737 0 5.439.033 8.142.134l.202-.236c-.101-1.284-.169-2.533-.236-3.817l-.202-.203c-4.966.034-7.906.034-7.906.034 0-1.993.034-3.953.068-5.912 3.108 0 6.182.067 9.256.237" fill="#0c6ea7" transform="matrix(1.3333 0 0 -1.3333 35.2774845 26.176606)"/><path d="m0 0c-.101-1.385-.169-2.838-.237-4.122l-.27-.202c-4.932 0-9.898-.034-14.864-.068l-.169.237c.136 3.108.169 6.216.169 9.357v6.994c0 2.398-.033 4.763-.236 7.127l.203.203c3.682 0 12.6.068 14.83.068l.169-.203c-.102-1.385-.203-2.602-.237-3.919l-.203-.203c-2.905.068-5.776.102-8.648.102 0-.642-.033-1.554-.033-2.5 0-1.081 0-2.162.033-2.871 2.737 0 5.439.033 8.142.134l.202-.236c-.101-1.284-.169-2.533-.236-3.817l-.203-.203c-4.965.034-7.905.034-7.905.034 0-1.993.035-3.953.068-5.912 3.108 0 6.182.067 9.256.237" fill="#0c6ea7" transform="matrix(1.3333 0 0 -1.3333 60.6368505 26.176606)"/><path d="m0 0c-.101-1.385-.169-2.838-.237-4.122l-.27-.202c-4.931 0-9.898-.034-14.864-.068l-.169.237c.136 3.108.169 6.216.169 9.357v6.994c0 2.398-.033 4.763-.236 7.127l.203.203c3.682 0 12.6.068 14.83.068l.169-.203c-.102-1.385-.203-2.602-.237-3.919l-.203-.203c-2.905.068-5.776.102-8.648.102 0-.642-.033-1.554-.033-2.5 0-1.081 0-2.162.033-2.871 2.737 0 5.439.033 8.142.134l.202-.236c-.101-1.284-.169-2.533-.236-3.817l-.202-.203c-4.966.034-7.906.034-7.906.034 0-1.993.034-3.953.068-5.912 3.108 0 6.182.067 9.256.237" fill="#0c6ea7" transform="matrix(1.3333 0 0 -1.3333 85.9962165 26.176606)"/><path d="m0 0c1.689-.067 3.412-.067 5.135-.067.98 0 1.993 0 3.041.067l-1.251 12.803zm11.249-9.797c-.675-.033-1.351-.068-1.993-.068l-.236.237c-.304 3.75-.135 2.263-.71 7.77-1.925.033-3.952.033-5.877.033-1.15 0-2.264 0-3.412-.033-2.23-4.257-3.142-5.946-4.021-7.702l-.236-.169c-.71 0-1.453 0-2.196-.034l-.101.27c3.141 5.473 12.026 21.587 13.074 23.445l.27.169c.743.034 1.52.067 2.905.067l.169-.135c.709-7.905 1.655-15.776 2.567-23.647" fill="#00adef" transform="matrix(1.3333 0 0 -1.3333 100.3331914 18.923454)"/><path d="m0 0c-1.047-.642-2.601-1.047-4.257-1.047-4.459 0-6.992 2.972-6.992 7.296 0 1.217.236 3.987 2.128 6.757 1.79 2.601 4.358 4.054 7.567 4.054.743 0 3.04-.068 4.932-1.351l.068-.271c-.237-.574-.439-1.182-.608-1.79l-.338-.135c-1.149 1.723-3.682 1.756-4.122 1.756-.54 0-1.891-.068-3.276-.878-2.602-1.588-4.122-5.135-4.122-8.074 0-3.175 1.824-5.54 5.067-5.54 1.926 0 3.176.608 4.595 1.824l.271-.135c-.271-.743-.542-1.487-.744-2.229" fill="#00adef" transform="matrix(1.3333 0 0 -1.3333 132.441722 31.096483)"/><path d="m0 0c-1.047-.642-2.601-1.047-4.256-1.047-4.459 0-6.993 2.972-6.993 7.296 0 1.217.236 3.987 2.128 6.757 1.791 2.601 4.358 4.054 7.567 4.054.744 0 3.041-.068 4.932-1.351l.068-.271c-.236-.574-.439-1.182-.608-1.79l-.338-.135c-1.149 1.723-3.682 1.756-4.121 1.756-.541 0-1.892-.068-3.277-.878-2.601-1.588-4.122-5.135-4.122-8.074 0-3.175 1.825-5.54 5.068-5.54 1.925 0 3.175.608 4.594 1.824l.27-.135c-.27-.743-.541-1.487-.743-2.229" fill="#00adef" transform="matrix(1.3333 0 0 -1.3333 151.027924 31.136482)"/><path d="m0 0c.067.169.203.912.203 1.587 0 1.352-.574 3.886-4.156 3.886-4.121 0-6.013-3.277-6.688-5.507zm-.81-9.493c-1.217-.709-2.839-1.452-5.507-1.452-5.034 0-7.095 3.378-7.095 7.027 0 4.188 2.399 11.08 9.527 11.08 3.784 0 6.148-2.061 6.148-5.946 0-1.385-.27-2.297-.405-2.871l-.236-.169c-1.757.034-3.514.067-5.304.067-2.467 0-4.932 0-7.398-.067-.102-.372-.237-1.047-.237-1.96 0-4.83 3.885-5.304 5.507-5.304 2.432 0 3.851.845 5.641 2.23l.236-.169c-.236-.743-.405-1.486-.608-2.229" fill="#00adef" transform="matrix(1.3333 0 0 -1.3333 172.414056 17.896813)"/><path d="m0 0-.574-1.655-.271-.068c-1.114 1.013-2.837 1.588-4.392 1.588-2.127 0-4.222-1.081-4.222-3.176 0-1.824 1.723-2.601 3.142-3.175l1.08-.439c3.075-1.251 3.582-3.176 3.582-4.392 0-2.095-1.486-5.507-6.723-5.507-3.074 0-4.763 1.115-5.675 1.724l-.068.236.54 1.655.271.068c.676-.608 2.196-1.926 5.134-1.926 2.568 0 4.426 1.52 4.426 3.581 0 1.081-.54 2.061-3.006 3.04l-.946.372c-2.398.946-3.851 2.365-3.851 4.493 0 2.095 1.351 5.135 6.419 5.135 2.263 0 3.783-.507 4.999-1.284" fill="#00adef" transform="matrix(1.3333 0 0 -1.3333 193.706857 10.28367)"/><path d="m0 0-.575-1.655-.271-.068c-1.114 1.013-2.837 1.588-4.391 1.588-2.128 0-4.222-1.081-4.222-3.176 0-1.824 1.722-2.601 3.141-3.175l1.081-.439c3.074-1.251 3.581-3.176 3.581-4.392 0-2.095-1.486-5.507-6.723-5.507-3.074 0-4.763 1.115-5.675 1.724l-.068.236.541 1.655.27.068c.676-.608 2.196-1.926 5.134-1.926 2.568 0 4.427 1.52 4.427 3.581 0 1.081-.541 2.061-3.007 3.04l-.946.372c-2.398.946-3.851 2.365-3.851 4.493 0 2.095 1.351 5.135 6.419 5.135 2.263 0 3.783-.507 4.999-1.284" fill="#00adef" transform="matrix(1.3333 0 0 -1.3333 211.626409 10.28367)"/><g fill="#231f20"><path d="m0 0c.032-1.463.082-2.921.164-4.385l-.032-.044c-.315 0-.353-.006-.681-.019l-.038.045c.006.712 0 .933-.018 1.627l-.013.669c0 .448-.007 1.413-.007 1.653-.1-.366-.195-.701-.46-1.584l-.29-.914c-.234-.701-.309-.947-.455-1.433l-.038-.044c-.34 0-.372 0-.731-.019l-.038.045c-.032.107-.063.214-.095.314-.05.197-.328 1.137-.391 1.345l-.252.883c-.253.902-.278 1.003-.366 1.407-.007-.631-.013-.77-.032-1.401l-.044-1.129c-.025-.744-.025-.908-.031-1.401l-.032-.044c-.303 0-.341 0-.605-.019l-.032.045c.012.126.025.258.038.384.063.751.088 1.501.132 2.253.063 1.123.07 1.192.07 1.747l.037.044c.461 0 .574.007.972.019l.044-.044c.113-.505.221-.871.347-1.3l.688-2.548.801 2.63c.252.821.265.852.36 1.199l.038.044c.46 0 .517.007.952.019" transform="matrix(1.3333 0 0 -1.3333 6.4595383 44.81614)"/><path d="m0 0c-.012-.479-.019-.927-.019-1.438 0-.777.019-1.243.031-1.514l.013-.265-.025-.038c-.303-.007-.353-.013-.643-.025l-.039.037.007.265c-.139-.101-.473-.359-.99-.359-.247 0-.518.057-.72.214-.404.328-.404.864-.41 1.357v.391c-.013.902-.013 1.003-.031 1.343l.031.044c.297.007.354.007.65.032l.038-.044-.025-1.382c0-.17-.006-.296 0-.599.006-.265.018-.833.656-.833.372 0 .637.209.788.329.006.34.006.63.006.996 0 .877-.006 1.054-.043 1.464l.037.044c.291.006.36.006.65.025" transform="matrix(1.3333 0 0 -1.3333 11.4860793 46.362768)"/><path d="m0 0c-.303-.006-.366-.012-.662-.025l-.032.044c.012.448.032 1.016.032 2.227 0 .871 0 1.805-.063 2.612l.031.038c.309.051.372.064.688.133l.038-.045c-.044-.826-.044-1.659-.044-2.486 0-1.381.018-1.86.05-2.46" transform="matrix(1.3333 0 0 -1.3333 13.5793603 50.709326)"/><path d="m0 0c-.019-.208-.019-.252-.025-.435l-.032-.038c-.132-.032-.24-.057-.473-.057-.152 0-.549 0-.745.328-.113.183-.113.334-.113 1.079l.013 1.387c-.221 0-.228-.005-.455-.011l-.025.037c.013.202.013.252.013.454l.038.038c.138 0 .221-.006.429 0-.007.133-.007.272-.007.404-.006.12-.013.24-.019.359l.032.045c.284.07.353.088.643.176l.044-.031c-.018-.417-.025-.499-.025-.959.266.006.341.006.701.019l.031-.038c-.013-.164-.019-.234-.019-.448l-.031-.038c-.316.006-.354.013-.688.013l-.013-1.173.007-.524c0-.461.057-.606.372-.606.132 0 .233.031.303.057" transform="matrix(1.3333 0 0 -1.3333 16.6992823 50.042676)"/><path d="m0 0c-.322-.012-.391-.019-.7-.051l-.038.039.006.252c0 .113-.006.214-.012.34l.044.038c.328.025.385.032.7.063l.038-.038c-.006-.259-.006-.321 0-.599zm-.006-4.196c-.329-.006-.379-.006-.688-.025l-.031.044c.018.335.037.625.037 1.325 0 1.205-.019 1.433-.063 1.805l.032.044c.271.044.366.057.681.126l.063-.038c-.019-.328-.037-.669-.037-1.482 0-1.174.012-1.332.037-1.761" transform="matrix(1.3333 0 0 -1.3333 18.337908 45.109466)"/><path d="m0 0c-.107.006-.183.019-.315.019-.196 0-.613-.013-.916-.297-.138-.132-.365-.429-.365-.99 0-.36.101-.618.233-.777.114-.131.322-.283.65-.283.385 0 .618.202.707.278.012.826.012 1.016.006 2.05m-.006 2.076c.321.056.385.069.668.132l.045-.037c-.045-.878-.051-2.442-.051-3.073 0-.978.026-1.445.051-1.88l-.032-.044c-.278 0-.353-.007-.643-.019l-.044.037.012.234c-.151-.114-.41-.316-.871-.316-.839 0-1.419.663-1.419 1.622 0 .687.29 1.123.555 1.356.46.417 1.06.436 1.388.436.132 0 .196 0 .366-.013.006.782-.025 1.161-.057 1.527" transform="matrix(1.3333 0 0 -1.3333 22.3324748 46.94942)"/><path d="m0 0c-.322-.012-.391-.019-.7-.051l-.038.039.006.252c0 .113-.006.214-.012.34l.044.038c.328.025.385.032.7.063l.038-.038c-.006-.259-.006-.321 0-.599zm-.006-4.196c-.329-.006-.379-.006-.688-.025l-.031.044c.018.335.037.625.037 1.325 0 1.205-.019 1.433-.063 1.805l.032.044c.271.044.366.057.681.126l.063-.038c-.019-.328-.037-.669-.037-1.482 0-1.174.012-1.332.037-1.761" transform="matrix(1.3333 0 0 -1.3333 25.3417329 45.109466)"/><path d="m0 0c.252-.082.826-.278.826-.946 0-.253-.094-.537-.353-.745-.334-.284-.782-.303-1.009-.303-.341 0-.625.063-.865.158l-.094.038-.032.056c.025.246.025.278.038.531l.063.018c.113-.088.391-.303.877-.303.498 0 .681.278.681.473 0 .291-.271.385-.656.512l-.202.069c-.258.082-.826.265-.826.915s.568.972 1.274.972c.467 0 .795-.133.909-.177l.031-.044c-.025-.234-.031-.259-.05-.499l-.057-.025c-.158.101-.404.252-.814.252-.088 0-.176-.006-.271-.031-.19-.05-.347-.183-.347-.378 0-.272.259-.354.65-.473" transform="matrix(1.3333 0 0 -1.3333 28.2856593 48.162723)"/><path d="m0 0c-.025-.271-.032-.303-.05-.561l-.044-.045c-.184-.088-.429-.214-.871-.214-.953 0-1.571.687-1.571 1.672 0 1.003.606 1.76 1.584 1.76.409 0 .7-.133.864-.202l.025-.044c-.025-.227-.031-.309-.044-.498l-.051-.026c-.208.152-.447.246-.7.246-.524 0-.984-.403-.984-1.211 0-.858.485-1.168.978-1.168.429 0 .694.221.814.316" transform="matrix(1.3333 0 0 -1.3333 33.3481994 49.709351)"/><path d="m0 0c-.322-.012-.391-.019-.7-.051l-.038.039.006.252c0 .113-.006.214-.012.34l.044.038c.328.025.385.032.7.063l.038-.038c-.006-.259-.006-.321 0-.599zm-.006-4.196c-.329-.006-.379-.006-.688-.025l-.031.044c.018.335.037.625.037 1.325 0 1.205-.019 1.433-.063 1.805l.032.044c.271.044.366.057.681.126l.063-.038c-.019-.328-.037-.669-.037-1.482 0-1.174.012-1.332.037-1.761" transform="matrix(1.3333 0 0 -1.3333 34.9694922 45.109466)"/><path d="m0 0c.833 0 1.313.53 1.313 1.306 0 .656-.348 1.06-.852 1.06-.341 0-.581-.164-.726-.265-.006-.328-.013-.65-.013-.972 0-.372.007-.745.013-1.11.082-.007.158-.019.265-.019m-.278 2.555c.127.101.429.341.922.341.801 0 1.362-.657 1.362-1.546 0-.978-.649-1.817-1.981-1.817-.119 0-.195.006-.283.013.006-.757.018-.921.05-1.515l-.038-.038c-.221-.006-.441-.012-.662-.018l-.032.038c.012.384.025.782.025 1.425 0 .373-.006.745-.006 1.117-.007.978-.007 1.419-.082 2.139l.032.038c.309.05.378.069.662.126l.044-.038" transform="matrix(1.3333 0 0 -1.3333 37.4080979 50.096008)"/><path d="m0 0c-.303-.006-.366-.012-.662-.025l-.032.044c.012.448.032 1.016.032 2.227 0 .871 0 1.805-.063 2.612l.031.038c.309.051.372.064.688.133l.038-.045c-.044-.826-.044-1.659-.044-2.486 0-1.381.018-1.86.05-2.46" transform="matrix(1.3333 0 0 -1.3333 41.9479844 50.709326)"/><path d="m0 0c-.322-.012-.391-.019-.7-.051l-.038.039.006.252c0 .113-.006.214-.012.34l.044.038c.328.025.385.032.7.063l.038-.038c-.006-.259-.006-.321 0-.599zm-.006-4.196c-.329-.006-.379-.006-.688-.025l-.031.044c.018.335.037.625.037 1.325 0 1.205-.019 1.433-.063 1.805l.032.044c.271.044.366.057.681.126l.063-.038c-.019-.328-.037-.669-.037-1.482 0-1.174.012-1.332.037-1.761" transform="matrix(1.3333 0 0 -1.3333 44.0759312 45.109466)"/><path d="m0 0c-.303-.006-.341-.006-.631-.025l-.044.044.006.209c.007.308.007.618.007.927 0 .972-.007 1.035-.038 1.167-.12.479-.48.479-.568.479-.379 0-.669-.22-.839-.353-.007-1.098.006-1.672.05-2.41l-.038-.038c-.309-.006-.359-.006-.662-.025l-.032.044c.007.353.019.694.019 1.161 0 1.01-.044 1.546-.076 1.969l.038.044c.316.057.373.069.67.126l.043-.044-.006-.328c.164.113.555.391 1.111.391.157 0 .352-.026.523-.12.164-.094.296-.24.366-.41.082-.189.089-.379.095-.77v-.738c.018-.738.025-1.022.044-1.262" transform="matrix(1.3333 0 0 -1.3333 48.9704755 50.709326)"/><path d="m0 0c-.637-.094-1.23-.183-1.23-.744 0-.032 0-.574.599-.574.391 0 .619.214.688.277v1.053zm.707-.461c0-.782.006-.851.037-1.261l-.031-.032c-.296-.006-.347-.012-.637-.025l-.026.038.007.227c-.12-.095-.404-.321-.883-.321-.631 0-1.073.428-1.073 1.053 0 .845.707 1.117 1.842 1.249l.107.013c0 .17 0 .29-.056.391-.064.113-.208.233-.524.233-.41 0-.694-.126-.959-.239l-.05.031c.012.29.012.328.018.461l.038.038c.354.126.719.208 1.092.208.467 0 .921-.158 1.053-.65.045-.177.045-.524.045-.789" transform="matrix(1.3333 0 0 -1.3333 52.417056 48.362718)"/><path d="m0 0c-.063.025-.145.057-.253.057-.119 0-.208-.045-.264-.082-.259-.183-.259-.461-.259-1.117 0-.713.019-1.085.044-1.439l-.032-.044c-.296 0-.365-.006-.668-.019l-.032.038c.007.48.013.915.013 1.502 0 1.009-.019 1.267-.057 1.634l.038.044c.24.044.391.076.656.126l.038-.038-.032-.536c.076.202.234.606.77.606l.177-.019.025-.038c-.063-.303-.076-.366-.12-.643" transform="matrix(1.3333 0 0 -1.3333 56.4862876 47.21608)"/><path d="m0 0c-.36-.89-.965-2.556-1.123-2.997-.196-.574-.385-1.148-.517-1.735l-.057-.051c-.315-.005-.372-.005-.669-.018l-.025.044.025.044c.114.233.208.48.316.726.088.208.195.409.265.63l.019.051c0 .076-.94 2.619-1.212 3.262l.026.056c.315.026.378.026.7.063l.037-.037c.171-.568.253-.833.392-1.243l.397-1.205.36 1.11c.132.436.29.953.391 1.312l.044.039c.158 0 .329 0 .612.006" transform="matrix(1.3333 0 0 -1.3333 60.9848418 46.389434)"/><path d="m0 0c.158.132.24.328.24.53 0 .132-.032.29-.12.435-.202.309-.543.328-1.016.328-.082 0-.196 0-.41-.006-.007-.732-.007-.833 0-1.533.48-.006 1.003-.019 1.306.246m-1.287-2.656c-.36 0-.366 0-.694-.019l-.038.044c.019.612.025 1.23.025 1.842 0 1.414-.025 1.912-.063 2.543l.038.044h.158c.113 0 .422.006.637.006l.385.007c.347 0 .681 0 .99-.108.486-.164.795-.511.795-1.116 0-.505-.271-1.016-1.078-1.237.107-.145.599-.864.713-1.028.195-.278.283-.404.674-.922l-.025-.062c-.126 0-.258 0-.385-.007-.132-.006-.264-.013-.397-.025l-.044.032-.076.132c-.183.322-.398.625-.599.934-.379.573-.417.637-.568.839-.196-.007-.233-.013-.454-.007 0-.347.006-1.318.044-1.848" transform="matrix(1.3333 0 0 -1.3333 75.0644898 47.136082)"/><path d="m0 0c-.637-.094-1.231-.183-1.231-.744 0-.032 0-.574.6-.574.391 0 .619.214.688.277v1.053zm.707-.461c0-.782.006-.851.037-1.261l-.031-.032c-.296-.006-.347-.012-.637-.025l-.026.038.007.227c-.12-.095-.404-.321-.883-.321-.631 0-1.073.428-1.073 1.053 0 .845.707 1.117 1.842 1.249l.107.013c0 .17 0 .29-.056.391-.064.113-.209.234-.524.234-.41 0-.694-.127-.959-.241l-.05.032c.012.29.012.328.018.461l.038.038c.354.126.719.208 1.092.208.467 0 .921-.158 1.053-.65.045-.177.045-.524.045-.789" transform="matrix(1.3333 0 0 -1.3333 79.6550417 48.336052)"/><path d="m0 0c.833 0 1.313.53 1.313 1.306 0 .656-.348 1.06-.852 1.06-.341 0-.581-.164-.726-.265-.006-.328-.013-.65-.013-.972 0-.372.007-.745.013-1.11.082-.007.158-.019.265-.019m-.278 2.555c.127.101.429.341.922.341.801 0 1.362-.657 1.362-1.546 0-.978-.649-1.817-1.981-1.817-.119 0-.195.006-.283.013.006-.757.018-.921.05-1.515l-.038-.038c-.221-.006-.441-.012-.662-.018l-.032.038c.012.384.025.782.025 1.425 0 .373-.006.745-.006 1.117-.007.978-.007 1.419-.082 2.139l.031.038c.31.05.379.069.663.126l.044-.038" transform="matrix(1.3333 0 0 -1.3333 83.0349572 50.056009)"/><path d="m0 0c-.322-.012-.391-.019-.7-.051l-.038.039.006.252c0 .113-.006.214-.012.34l.044.038c.328.025.385.032.7.063l.038-.038c-.006-.259-.006-.321 0-.599zm-.006-4.196c-.329-.006-.379-.006-.688-.025l-.031.044c.018.335.037.625.037 1.325 0 1.205-.019 1.433-.063 1.805l.032.044c.271.044.366.057.681.126l.063-.038c-.019-.328-.037-.669-.037-1.482 0-1.174.012-1.331.037-1.761" transform="matrix(1.3333 0 0 -1.3333 87.6001764 45.0828)"/><path d="m0 0c-.107.006-.183.019-.315.019-.196 0-.613-.013-.916-.297-.138-.132-.365-.429-.365-.99 0-.36.101-.618.233-.776.114-.132.322-.284.65-.284.385 0 .618.202.707.278.012.826.012 1.016.006 2.05m-.006 2.076c.321.056.384.069.668.132l.045-.037c-.045-.878-.051-2.442-.051-3.073 0-.978.025-1.445.051-1.88l-.032-.044c-.278 0-.353-.007-.643-.019l-.044.037.012.234c-.151-.114-.41-.316-.871-.316-.839 0-1.419.663-1.419 1.622 0 .687.29 1.123.555 1.356.46.417 1.06.436 1.388.436.132 0 .196 0 .366-.013.006.782-.025 1.161-.057 1.527" transform="matrix(1.3333 0 0 -1.3333 91.5947432 46.909421)"/><path d="m0 0c.158.132.24.328.24.53 0 .132-.032.29-.12.435-.202.309-.543.328-1.016.328-.082 0-.196 0-.41-.006-.007-.732-.007-.833 0-1.533.48-.006 1.003-.019 1.306.246m-1.287-2.656c-.36 0-.366 0-.694-.019l-.038.044c.019.612.025 1.23.025 1.842 0 1.414-.025 1.912-.063 2.543l.038.044h.158c.113 0 .422.006.637.006l.385.007c.347 0 .681 0 .99-.108.486-.164.795-.511.795-1.116 0-.505-.271-1.016-1.078-1.237.107-.145.599-.864.713-1.028.195-.278.283-.404.674-.922l-.025-.062c-.126 0-.258 0-.385-.007-.132-.006-.264-.013-.397-.025l-.044.032-.076.132c-.183.322-.398.625-.599.934-.379.573-.417.637-.568.839-.196-.007-.233-.013-.454-.007 0-.347.006-1.318.044-1.848" transform="matrix(1.3333 0 0 -1.3333 98.8852276 47.136082)"/><path d="m0 0c-.126.347-.404.492-.688.492-.353 0-.769-.24-.833-.871.764-.006 1.004 0 1.584.007-.006.088-.012.227-.063.372m.587-1.647c-.032-.252-.038-.315-.051-.561l-.037-.045c-.108-.056-.448-.239-1.01-.239-1.035 0-1.684.593-1.684 1.69 0 1.174.706 1.748 1.533 1.748.498 0 .845-.208 1.034-.436.36-.429.348-1.053.341-1.33l-.044-.038c-.984.006-1.155.006-2.19 0 .007-.221.026-.53.24-.789.259-.309.619-.34.814-.34.183 0 .373.031.549.094.233.094.372.209.454.278" transform="matrix(1.3333 0 0 -1.3333 103.9131019 47.456074)"/><path d="m0 0c-.353-.006-.442-.006-.808-.025l-.038.044c-.309 1.073-.637 2.139-1.009 3.193l.025.05c.309.019.379.026.688.057l.05-.031c.234-.935.493-1.869.751-2.796.063.228.379 1.325.448 1.572.208.725.265.983.316 1.198l.044.032c.296-.013.347-.006.593 0l.032-.044c-.385-1.06-.726-2.133-1.054-3.212" transform="matrix(1.3333 0 0 -1.3333 107.6116761 50.669327)"/><path d="m0 0c-.323-.012-.392-.019-.701-.051l-.038.039.007.252c0 .113-.007.214-.012.34l.043.038c.329.025.386.032.701.063l.037-.038c-.005-.259-.005-.321 0-.599zm-.007-4.196c-.329-.006-.378-.006-.687-.025l-.032.044c.019.335.037.625.037 1.325 0 1.205-.018 1.433-.063 1.805l.033.044c.27.044.365.057.682.126l.061-.038c-.018-.328-.036-.669-.036-1.482 0-1.174.012-1.331.036-1.761" transform="matrix(1.3333 0 0 -1.3333 110.548936 45.0828)"/><path d="m0 0c-.126.347-.404.492-.688.492-.353 0-.77-.24-.833-.871.764-.006 1.004 0 1.584.007-.006.088-.013.227-.063.372m.587-1.647c-.032-.252-.038-.315-.051-.561l-.037-.045c-.108-.056-.449-.239-1.01-.239-1.035 0-1.685.593-1.685 1.69 0 1.174.707 1.748 1.534 1.748.498 0 .845-.208 1.034-.436.359-.429.348-1.053.341-1.33l-.044-.038c-.984.006-1.155.006-2.19 0 .007-.221.025-.53.24-.789.258-.309.619-.34.814-.34.183 0 .372.031.549.094.233.094.372.209.454.278" transform="matrix(1.3333 0 0 -1.3333 114.428839 47.456074)"/><path d="m0 0c-.423-.006-.473-.006-.858-.025l-.044.044c-.076.385-.196.896-.303 1.344l-.366 1.514-.372-1.551c-.19-.764-.253-1.011-.31-1.288l-.037-.038c-.442-.006-.474-.006-.871-.025l-.038.044c-.277 1.13-.751 2.782-.883 3.199l.025.044c.303.019.385.019.688.05l.037-.037c.038-.208.082-.404.354-1.571l.303-1.3.41 1.697c.189.839.202.921.24 1.123l.044.044c.372 0 .48 0 .896.02l.038-.045c.088-.435.239-1.041.353-1.521l.334-1.337.353 1.47c.051.221.101.442.152.663.107.429.12.479.157.719l.045.038c.101 0 .208-.007.309-.007.094 0 .189.007.284.007l.038-.038c-.12-.36-.676-2.12-.934-3.199" transform="matrix(1.3333 0 0 -1.3333 121.082006 50.669327)"/><path d="m0 0c0 .233-.033.852-.272 1.242-.328.537-.863.543-1.015.543-.582 0-.885-.322-1.015-.536-.241-.372-.286-.965-.286-1.249 0-.303.045-.839.26-1.211.213-.366.568-.594 1.034-.594.927-.006 1.294.846 1.294 1.805m-3.351-.044c0 1.413.758 2.353 2.064 2.353 1.25 0 2.038-.877 2.038-2.341 0-1.508-.815-2.303-2.058-2.303-1.306.007-2.044.89-2.044 2.291" transform="matrix(1.3333 0 0 -1.3333 138.014916 47.696068)"/><path d="m0 0c.833 0 1.312.53 1.312 1.306 0 .656-.347 1.06-.851 1.06-.341 0-.58-.164-.726-.265-.006-.328-.013-.65-.013-.972 0-.372.007-.745.013-1.11.082-.007.158-.019.265-.019m-.278 2.555c.127.101.429.341.921.341.802 0 1.363-.657 1.363-1.546 0-.978-.649-1.817-1.981-1.817-.12 0-.195.006-.283.013.006-.757.018-.921.05-1.515l-.038-.038c-.22-.006-.441-.012-.662-.018l-.032.038c.013.384.025.782.025 1.425 0 .373-.006.745-.006 1.117-.006.978-.006 1.419-.082 2.139l.031.038c.31.05.38.069.663.126l.044-.038" transform="matrix(1.3333 0 0 -1.3333 141.281501 50.056009)"/><path d="m0 0c-.126.347-.404.492-.688.492-.353 0-.769-.24-.833-.871.764-.006 1.003 0 1.584.007-.006.088-.013.227-.063.372m.587-1.647c-.032-.252-.038-.315-.051-.561l-.038-.045c-.107-.056-.448-.239-1.009-.239-1.035 0-1.684.593-1.684 1.69 0 1.174.706 1.748 1.533 1.748.498 0 .845-.208 1.034-.436.359-.429.347-1.053.341-1.33l-.044-.038c-.984.006-1.155.006-2.19 0 .007-.221.025-.53.24-.789.258-.309.619-.34.814-.34.183 0 .372.031.549.094.233.094.372.209.454.278" transform="matrix(1.3333 0 0 -1.3333 147.628009 47.456074)"/><path d="m0 0c-.303-.006-.341-.006-.632-.025l-.044.044.006.209c.007.308.007.618.007.927 0 .971-.007 1.035-.038 1.167-.12.479-.479.479-.568.479-.379 0-.669-.22-.839-.353-.006-1.098.006-1.672.051-2.41l-.038-.038c-.31-.006-.36-.006-.663-.025l-.031.044c.006.353.019.694.019 1.161 0 1.01-.045 1.546-.076 1.968l.038.045c.315.057.372.069.669.126l.044-.044-.007-.328c.164.113.556.391 1.111.391.158 0 .353-.026.524-.12.164-.094.296-.24.365-.41.082-.19.089-.379.095-.77v-.738c.018-.738.025-1.022.044-1.262" transform="matrix(1.3333 0 0 -1.3333 153.201203 50.669327)"/><path d="m0 0c.202 0 .404-.006.606-.006.214 0 .441.006.662.006l-.606 2.132zm1.249 2.454c.208-.693.448-1.476.638-2.076.195-.605.51-1.577.7-2.182l-.026-.051c-.327-.006-.466-.013-.731-.025l-.045.044c-.157.593-.207.764-.371 1.331-.253 0-.499.006-.752.006-.277 0-.567-.006-.82-.006-.182-.593-.221-.744-.372-1.306l-.044-.044c-.271 0-.334 0-.65-.018l-.025.044.07.195c.239.682.473 1.363.7 2.044.378 1.117.517 1.527.7 2.133l.05.044c.442.006.499.006.903.025l.044-.044" transform="matrix(1.3333 0 0 -1.3333 157.894419 48.189389)"/><path d="m0 0c-.025-.271-.032-.303-.051-.561l-.044-.045c-.183-.088-.429-.214-.87-.214-.953 0-1.571.687-1.571 1.672 0 1.003.605 1.76 1.584 1.76.409 0 .7-.133.864-.202l.025-.044c-.025-.227-.032-.309-.044-.498l-.051-.026c-.208.152-.447.246-.7.246-.524 0-.984-.403-.984-1.211 0-.858.486-1.168.978-1.168.429 0 .694.221.813.316" transform="matrix(1.3333 0 0 -1.3333 165.067573 49.682685)"/><path d="m0 0c-.025-.271-.032-.303-.051-.561l-.044-.045c-.183-.088-.429-.214-.87-.214-.953 0-1.571.687-1.571 1.672 0 1.003.605 1.76 1.584 1.76.409 0 .7-.133.864-.202l.025-.044c-.025-.227-.032-.309-.044-.498l-.051-.026c-.208.152-.447.246-.7.246-.524 0-.984-.403-.984-1.211 0-.858.486-1.168.978-1.168.429 0 .694.221.813.316" transform="matrix(1.3333 0 0 -1.3333 168.92081 49.682685)"/><path d="m0 0c-.126.347-.404.492-.688.492-.353 0-.77-.24-.833-.871.764-.006 1.003 0 1.584.007-.006.088-.013.227-.063.372m.587-1.647c-.032-.252-.038-.315-.051-.561l-.038-.045c-.107-.056-.448-.239-1.009-.239-1.034 0-1.685.593-1.685 1.69 0 1.174.707 1.748 1.533 1.748.499 0 .846-.208 1.035-.436.359-.429.347-1.053.341-1.33l-.044-.038c-.984.006-1.155.006-2.19 0 .007-.221.025-.53.24-.789.258-.309.618-.34.814-.34.183 0 .372.031.549.094.233.094.372.209.454.278" transform="matrix(1.3333 0 0 -1.3333 172.320725 47.456074)"/><path d="m0 0c.252-.082.827-.278.827-.946 0-.253-.095-.537-.354-.745-.334-.284-.782-.303-1.009-.303-.341 0-.625.063-.864.158l-.095.038-.031.056c.024.246.024.279.037.531l.063.018c.114-.088.392-.303.877-.303.499 0 .682.278.682.473 0 .291-.272.385-.656.512l-.202.069c-.259.083-.827.265-.827.915s.568.972 1.274.972c.467 0 .795-.133.909-.177l.031-.044c-.024-.234-.031-.259-.05-.499l-.057-.025c-.157.101-.404.252-.813.252-.089 0-.177-.006-.272-.031-.189-.05-.347-.183-.347-.378 0-.272.259-.354.65-.473" transform="matrix(1.3333 0 0 -1.3333 175.947301 48.122724)"/><path d="m0 0c.252-.082.827-.278.827-.946 0-.253-.095-.537-.354-.745-.334-.284-.782-.303-1.009-.303-.341 0-.625.063-.864.158l-.095.038-.031.056c.024.246.024.279.037.531l.063.018c.114-.088.392-.303.877-.303.499 0 .682.278.682.473 0 .291-.272.385-.656.512l-.202.069c-.259.083-.827.265-.827.915s.568.972 1.274.972c.467 0 .795-.133.909-.177l.031-.044c-.024-.234-.031-.259-.05-.499l-.057-.025c-.157.101-.404.252-.813.252-.089 0-.177-.006-.272-.031-.189-.05-.347-.183-.347-.378 0-.272.259-.354.65-.473" transform="matrix(1.3333 0 0 -1.3333 179.613876 48.122724)"/><path d="m0 0v.196c0 .056 0 .17-.007.29l.043.031c.102-.025.19-.051.347-.051.095 0 .379 0 .513.297.05.12.069.183.069 1.167 0 .808-.014 1.615-.051 2.417l.037.044c.266.006.374.006.708.019l.031-.044c-.031-1.338-.031-1.407-.026-1.981v-.568c.008-.095.008-.322.008-.568 0-.517-.032-1.35-1.175-1.35-.226 0-.353.025-.465.05" transform="matrix(1.3333 0 0 -1.3333 183.373782 50.602662)"/><path d="m0 0c-.12.196-.322.359-.675.359-.12 0-.474-.012-.695-.365-.17-.259-.188-.625-.188-.89 0-.252.006-.889.504-1.142.114-.056.246-.082.373-.082.233 0 .536.076.718.423.146.284.152.707.146.839 0 .158-.025.58-.183.858m.813-1.445c-.069-.309-.201-.554-.409-.763-.278-.278-.65-.385-1.092-.385-.567 0-.927.214-1.129.422-.429.436-.436 1.079-.436 1.288 0 .24.013.858.436 1.281.177.183.542.441 1.173.441.429 0 .852-.138 1.13-.454.29-.334.372-.776.385-1.218 0-.214-.013-.422-.058-.612" transform="matrix(1.3333 0 0 -1.3333 189.560294 47.322744)"/><path d="m0 0c-.012-.479-.019-.927-.019-1.438 0-.777.019-1.243.031-1.514l.013-.266-.025-.037c-.303-.007-.353-.013-.643-.025l-.038.037.006.265c-.138-.101-.473-.359-.991-.359-.246 0-.517.057-.719.214-.403.328-.403.864-.41 1.357v.391c-.013.902-.013 1.003-.031 1.343l.031.044c.297.007.354.007.65.032l.038-.044-.025-1.382c0-.17-.007-.296 0-.599.005-.265.018-.833.656-.833.372 0 .637.209.789.328.006.341.006.631.006.997 0 .877-.006 1.054-.044 1.464l.038.044c.289.006.359.006.649.025" transform="matrix(1.3333 0 0 -1.3333 195.386815 46.336102)"/><path d="m0 0c-.063.025-.145.057-.252.057-.12 0-.209-.045-.265-.082-.259-.183-.259-.461-.259-1.117 0-.713.019-1.085.045-1.438l-.033-.045c-.296 0-.365-.005-.668-.018l-.032.038c.007.479.013.914.013 1.501 0 1.01-.019 1.268-.057 1.634l.038.044c.24.044.391.076.657.127l.037-.039-.032-.535c.077.201.234.605.771.605l.176-.019.025-.038c-.063-.303-.075-.365-.12-.643" transform="matrix(1.3333 0 0 -1.3333 198.533403 47.189414)"/><path d="m0 0c-.302-.006-.34-.006-.631-.025l-.044.044.006.209c.007.308.007.618.007.927 0 .971-.007 1.035-.038 1.167-.12.479-.479.479-.568.479-.379 0-.669-.22-.839-.353-.006-1.098.006-1.672.051-2.41l-.038-.038c-.31-.006-.36-.006-.663-.025l-.031.044c.006.353.019.694.019 1.161 0 1.01-.045 1.546-.076 1.968l.038.045c.315.057.372.069.669.126l.044-.044-.007-.328c.164.113.556.391 1.111.391.158 0 .353-.026.523-.12.165-.094.297-.24.366-.41.082-.19.089-.379.095-.77v-.738c.018-.738.025-1.022.044-1.262" transform="matrix(1.3333 0 0 -1.3333 203.106622 50.669327)"/><path d="m0 0c-.638-.094-1.23-.183-1.23-.744 0-.032 0-.574.599-.574.391 0 .618.214.688.277v1.053zm.707-.461c0-.782.006-.851.037-1.261l-.031-.032c-.296-.006-.347-.012-.637-.025l-.025.038.006.227c-.12-.095-.404-.321-.883-.321-.632 0-1.073.428-1.073 1.053 0 .845.706 1.117 1.842 1.249l.108.013c0 .17 0 .29-.057.391-.064.113-.208.234-.524.234-.41 0-.694-.127-.959-.241l-.05.032c.012.29.012.328.018.461l.038.038c.354.126.719.208 1.092.208.467 0 .921-.158 1.053-.65.045-.177.045-.524.045-.789" transform="matrix(1.3333 0 0 -1.3333 206.546536 48.336052)"/><path d="m0 0c-.303-.006-.366-.012-.662-.025l-.032.044c.013.448.032 1.016.032 2.227 0 .871 0 1.805-.063 2.612l.031.038c.309.051.372.064.687.133l.039-.045c-.044-.826-.044-1.659-.044-2.486 0-1.381.018-1.86.049-2.46" transform="matrix(1.3333 0 0 -1.3333 209.573127 50.669327)"/></g><path d="m0 0h.271c.127 0 .395-.004.395.259 0 .066-.029.168-.132.218-.066.025-.107.025-.324.025h-.21zm.267.756c.189 0 .316-.004.432-.045.197-.07.295-.25.295-.427 0-.234-.143-.378-.382-.44.152-.066.226-.135.267-.386.041-.28.058-.382.144-.547h-.378c-.016.029-.049.095-.078.255l-.045.284c-.045.263-.173.283-.411.287h-.115v-.826h-.329v1.845zm.025.399c-.752 0-1.336-.6-1.336-1.336 0-.743.6-1.327 1.332-1.327.752 0 1.326.588 1.331 1.323.004.732-.567 1.34-1.327 1.34m-.008-2.794c-.761 0-1.459.596-1.459 1.458 0 .847.669 1.468 1.459 1.468.85 0 1.471-.67 1.466-1.472-.004-.809-.641-1.454-1.466-1.454" fill="#00adef" transform="matrix(1.3333 0 0 -1.3333 215.31965 10.843656)"/></svg>